<?xml version="1.0" encoding="utf-8"?>
<!-- Svg Vector Icons : http://www.onlinewebfonts.com/icon -->
<!DOCTYPE svg PUBLIC "-//W3C//DTD SVG 1.1//EN" "http://www.w3.org/Graphics/SVG/1.1/DTD/svg11.dtd">
<svg version="1.1" xmlns="http://www.w3.org/2000/svg" xmlns:xlink="http://www.w3.org/1999/xlink" x="0px" y="0px" viewBox="0 0 1000 1000" enable-background="new 0 0 1000 1000" xml:space="preserve">
<metadata> Svg Vector Icons : http://www.onlinewebfonts.com/icon </metadata>
<g><g transform="translate(0.000000,512.000000) scale(0.100000,-0.100000)"><path d="M5843.2,5003.7c-162.8-47.9-249-158.9-250.9-314.1c0-172.4,40.2-497.9,72.8-572.6c17.2-40.2,82.4-128.3,145.5-197.2c63.2-67,122.6-145.5,134.1-176.2c84.3-216.4,107.2-756.4,78.5-1842.3c-19.1-677.9-24.9-752.6-67-938.4C5827.9,421,5601.9,13.1,5195.9-404.4c-352.4-363.9-762.2-647.3-1263.9-875.2c-132.1-61.3-471.1-187.7-754.5-285.3c-685.6-231.7-982.4-350.4-1419-564.9c-499.8-245.1-869.4-496-993.9-676l-49.8-72.8v-484.5v-482.6l53.6-49.8c68.9-65.1,829.2-507.5,1047.5-609c440.4-208.7,980.5-294.9,1685.2-271.9c503.6,17.2,919.2,84.3,1403.7,226c1141.4,335.1,2286.5,1034.1,3134.9,1915C8731.1-1917.2,9117.9-992.3,9259.6,264c34.5,319.8,34.5,1407.5-1.9,1589.5c-124.5,639.6-549.6,1413.3-1015,1851.8c-229.8,218.3-446.2,346.6-852.2,501.7c-413.7,160.9-524.7,233.6-597.5,394.5c-86.2,193.4-273.9,333.2-528.6,392.6C6134.3,5024.7,5927.5,5028.5,5843.2,5003.7z M6182.2,4591.9c63.2-17.2,141.7-51.7,176.2-78.5c53.6-42.1,63.2-59.4,63.2-132.1c0-118.7-13.4-139.8-99.6-162.8c-103.4-28.7-241.3-5.7-271.9,46c-15.3,21.1-30.6,111.1-36.4,199.2C6002.1,4643.6,5996.4,4639.8,6182.2,4591.9z M6890.7,3977.2c63.2-32.6,245.1-109.2,402.2-172.4c195.3-74.7,340.9-147.5,453.9-224.1c440.5-293,900.1-997.7,1068.6-1631.6c59.4-226,82.4-572.6,70.9-1072.4c-11.5-478.8-46-806.2-118.7-1166.3c-176.2-867.5-505.6-1530.1-1032.2-2075.9c-869.4-902-2095-1604.8-3269-1878.7c-767.9-178.1-1738.8-166.6-2277,26.8c-195.3,70.9-314.1,132.1-722,371.5c-279.6,162.8-348.5,210.7-350.4,245.1c0,36.4,13.4,42.1,130.2,51.7c509.4,45.9,823.5,95.8,1246.7,204.9c1269.7,321.7,2499.1,1003.5,3416.4,1894C6605.4-777.8,7045.8-53.9,7201,675.7c42.1,199.2,47.9,905.8,9.6,1225.6c-90,743-296.8,1313.7-645.4,1782.9l-105.3,141.7l76.6,32.6c40.2,17.2,107.2,67,147.5,109.2c40.2,42.1,76.6,74.7,82.3,72.8C6772,4038.5,6827.5,4009.8,6890.7,3977.2z M6632.2,2667.3c136-409.8,197.3-846.4,197.3-1407.5c1.9-360-11.5-469.2-93.8-754.5c-59.4-206.8-254.7-609-406-835c-775.6-1160.5-2311.4-2187-3910.5-2610.2c-388.8-103.4-955.6-195.3-1200.7-195.3c-97.6,0-101.5,1.9-101.5,53.6c0,107.3,281.5,312.1,746.9,547.7c448.1,227.9,766,354.3,1511,605.1c773.7,258.5,1260.1,509.4,1744.6,894.3C5667-599.7,6067.3-46.3,6266.4,551.2c139.8,419.4,170.4,771.7,174.3,1982.1l1.9,584.1l59.4-113C6532.6,2941.2,6592,2789.9,6632.2,2667.3z"/></g></g>
</svg>