<?xml version="1.0" encoding="UTF-8" standalone="no"?>
<svg
   xmlns:dc="http://purl.org/dc/elements/1.1/"
   xmlns:cc="http://creativecommons.org/ns#"
   xmlns:rdf="http://www.w3.org/1999/02/22-rdf-syntax-ns#"
   xmlns:svg="http://www.w3.org/2000/svg"
   xmlns="http://www.w3.org/2000/svg"
   xmlns:sodipodi="http://sodipodi.sourceforge.net/DTD/sodipodi-0.dtd"
   xmlns:inkscape="http://www.inkscape.org/namespaces/inkscape"
   version="1.1"
   id="svg2"
   width="631.23431"
   height="526.18176"
   viewBox="0 0 631.23434 526.18176"
   sodipodi:docname="corgi.svg"
   inkscape:version="1.0.2 (394de47547, 2021-03-26)">
  <metadata
     id="metadata8">
    <rdf:RDF>
      <cc:Work
         rdf:about="">
        <dc:format>image/svg+xml</dc:format>
        <dc:type
           rdf:resource="http://purl.org/dc/dcmitype/StillImage" />
        <dc:title></dc:title>
      </cc:Work>
    </rdf:RDF>
  </metadata>
  <defs
     id="defs6" />
  <sodipodi:namedview
     pagecolor="#ffffff"
     bordercolor="#666666"
     borderopacity="1"
     objecttolerance="10"
     gridtolerance="10"
     guidetolerance="10"
     inkscape:pageopacity="0"
     inkscape:pageshadow="2"
     inkscape:window-width="1920"
     inkscape:window-height="1016"
     id="namedview4"
     showgrid="false"
     inkscape:zoom="0.51316815"
     inkscape:cx="335.48802"
     inkscape:cy="385.00972"
     inkscape:window-x="0"
     inkscape:window-y="27"
     inkscape:window-maximized="1"
     inkscape:current-layer="g10"
     fit-margin-top="0"
     fit-margin-left="0"
     fit-margin-right="0"
     fit-margin-bottom="0" />
  <g
     inkscape:groupmode="layer"
     inkscape:label="Image"
     id="g10"
     transform="translate(-367.04948,-248.90912)">
    <path
       id="Selection"
       fill="none"
       stroke="#000000"
       stroke-width="1"
       d="m 426.8173,456.43474 c 0,0 -13,1 -13,1 -7.76,0.09 -16.79,-0.16 -23.54,-4.62 0,0 -13.44,-13.43 -13.44,-13.43 -3.02,-3.44 -8.48,-10.14 -7.84,-14.95 0.8,-5.97 7.65,-14.09 11.91,-18.18 5.36,-5.15 14.71,-14.59 18.43,-20.99 2.88,-4.96 0.63,-13.18 0.65,-18.83 0,0 2.65,-19 2.65,-19 -0.1,-9.2 -5.02,-17.45 -6.64,-26.27 -2.85,-15.46 -3.36,-35.9 -3.18,-51.73 0.05,-4.28 0.23,-4.74 0.95,-8.83 1.48,-8.46 10.3,-11.17 12.05,-9.17 0,0 9.75,8.28 9.75,8.28 5.71,5.72 10.72,12.58 15.15,19.33 0,0 4.97,9.38 4.97,9.38 2.91,4.98 14.66,20.22 19.22,23.02 4.82,2.96 14.6,3.99 14.91,2.99 0.62,-1.38 6.5,-14.25 9.5,-17.81 0,0 6.31,-11.13 9.06,-15.19 2.63,-6.25 12.27,-18.4 17.04,-22.72 0,0 7.4,-6.28 7.4,-6.28 1.31,-1.12 3.64,0.33 5.14,1.16 7.57,4.21 8.14,16.39 9.81,23.84 0,0 2.21,15 2.21,15 1.75,11.88 3.92,23.65 7.91,35.01 0,0 8.72,19.19 8.72,19.19 0,0 2.65,10.8 2.65,10.8 1.85,5.1 5.13,10.63 5.56,16 0,0 5.7,9.71 7.61,13.99 0,0 10.16,25.01 10.16,25.01 9.3,18.14 8.92,26.82 27.14,41.52 9.43,7.61 31.89,15.59 44.09,17.59 0,0 16.99,1.94 16.99,1.94 0,0 24.01,7.06 24.01,7.06 11.07,2.24 13.43,1.58 24,0.98 0,0 15,0.91 15,0.91 0,0 20,0 20,0 0,0 16,1 16,1 0,0 17,-0.52 17,-0.52 0,0 6,0 6,0 0,0 13,-0.62 13,-0.62 0,0 9,0 9,0 0,0 25,0 25,0 0,0 37,4.45 37,4.45 0,0 15.09,1.24 15.09,1.24 11.41,1.77 30.9,7.24 41.63,12 10.22,4.54 25.9,12.57 31.65,22.53 1.77,3.07 2.75,8.44 3.68,11.92 0.83,3.12 1.83,3.5 2.64,7.44 2,1.18 22.32,23.24 26.65,29.36 2.8,3.97 2.28,6.28 5.66,10.2 0,0 1.38,3.75 1.38,3.75 -0.57,2.19 -2.01,11.77 -1.35,16.41 0.87,6.07 3.29,10.72 2.31,17.01 -1.44,9.29 -3.86,9.58 -4.93,13.87 0,0 -0.88,12.67 -0.88,12.67 -1,3.26 -3.91,5.39 -5.06,11.3 -1.28,6.18 1.52,7.15 0,13.11 -1.51,6.18 -6.16,15.76 -6.42,21.88 -0.48,11.34 8.67,22.8 9.33,30 0.32,3.47 -3.37,12.42 -4.89,16.04 -3.89,9.25 -4.4,6.72 -8.14,12.96 -4.1,6.85 -6.48,16.87 -14.35,20.34 -2.58,1.13 -19.94,2.76 -23,2.35 0,0 -9,-2.32 -9,-2.32 -6.42,-1.27 -13.3,-1.1 -12.69,-9.98 1.25,-18.05 26.55,-7.54 26.69,-28.39 0.02,-3.8 0.37,-13.81 -0.69,-16.91 -3.34,-9.78 -19.43,-19.28 -29.31,-19.09 1.44,2.24 2.95,4.46 3.82,7 1.67,4.92 1.33,16.17 -1.09,20.71 -1.68,3.13 -4.95,5.01 -7.3,7.55 0,0 -8.85,11.65 -8.85,11.65 0,0 -6.27,7.13 -6.27,7.13 -5.5,6.55 -5.26,9.04 -15.31,8.79 -4.51,-0.11 -24.74,-3.45 -29,-4.77 -9.4,-2.91 -8.94,-10.01 -1.59,-15.35 3.85,-2.8 16.89,-4.13 21.59,-3.71 2.1,-7.95 8.28,-20.58 7.12,-28.96 -0.64,-4.64 -5.4,-5.52 -9.27,-6.73 -2.89,-0.9 -3.77,-1.38 -6.85,-1.31 0,0 -5.58,-4.49 -5.58,-4.49 -3.94,-3.36 -7.01,-7.68 -12.42,-8.51 0,0 -19,-6.2 -19,-6.2 -5.76,-1 -6.75,0.7 -10,0 -3.13,-0.32 -5.46,-2.82 -10,-3.34 0,0 -20,1.8 -20,1.8 0,0 -25.96,2.55 -25.96,2.55 0,0 -22.32,5.38 -22.32,5.38 0,0 -7,4.24 -7,4.24 -2.9,1.02 -7.73,-0.68 -11.59,0.65 -3.84,1.31 -3.13,4.31 -7.23,4.74 -3.17,0.34 -6.5,-1.58 -9.36,-1.64 -5.06,-0.11 -7.45,2.85 -13.58,2.54 -10.69,-0.55 -17.14,-4.7 -30.96,-4.72 0,0 -40,0 -40,0 -3.66,0.01 -9.83,-0.11 -12.96,1.91 -4.57,2.96 -5.1,7.56 -7.6,11.67 -1.71,2.81 -13.81,18.13 -15.9,19.92 -1.63,1.39 -2.65,1.7 -4.54,2.5 0,0 -3,17 -3,17 0,0 -2,-1 -2,-1 1.72,16.84 -16.57,19.22 -29,20.45 0,0 -9,0.77 -9,0.77 0,0 -10,0 -10,0 -7.1,-0.08 -10.83,1.75 -11,-7.22 0,0 0,-4 0,-4 -6.26,0 -25.03,-0.09 -29.64,-3.64 -1.85,-1.42 -4.74,-6.05 -4.05,-7.3 0,0 15.41,-9.11 15.41,-9.11 6.12,-2.99 11.72,-2.09 15.43,-9.12 5.03,-9.55 -0.01,-26.52 -2.99,-36.16 -1.76,-5.71 -7.1,-20.36 -11.16,-22.67 -2.06,-2.94 -7.72,-6.62 -11.16,-9.54 -5.51,-4.68 -6.45,-7.81 -9.5,-10.44 -3.43,-2.96 -16.03,-11.77 -22.76,-23.14 -7.72,-8.28 -14.74,-17.48 -17.05,-28.88 -2.06,-10.12 -2.36,-20.7 -2.88,-31 0,0 0,-8 0,-8 0,0 -1.34,-9 -1.34,-9 0,0 -4.53,-45 -4.53,-45 0,0 0,-8 0,-8 0,0 0,-10 0,-10 0,0 3.22,-26 3.22,-26 z"
       style="stroke-width:3.77953;stroke-linejoin:round;stroke-miterlimit:4;stroke-dasharray:none" />
  </g>
</svg>
